<mxfile host="app.diagrams.net" modified="2023-02-28T04:35:59.841Z" agent="5.0 (Macintosh; Intel Mac OS X 10_15_7) AppleWebKit/537.36 (KHTML, like Gecko) Chrome/110.0.0.0 Safari/537.36" etag="bOfsnE4xzT8zW9JurHc8" version="20.8.21" type="github">
  <diagram id="NNU2D57arVzQ4B7ft5H6" name="Page-1">
    <mxGraphModel dx="1242" dy="795" grid="1" gridSize="10" guides="1" tooltips="1" connect="1" arrows="1" fold="1" page="1" pageScale="1" pageWidth="827" pageHeight="1169" math="0" shadow="0">
      <root>
        <mxCell id="0" />
        <mxCell id="1" parent="0" />
        <mxCell id="xrCKwuGJ82CZrmUyjIei-16" style="edgeStyle=none;rounded=0;orthogonalLoop=1;jettySize=auto;html=1;entryX=0;entryY=0.5;entryDx=0;entryDy=0;" edge="1" parent="1" source="vh9fwOP3rLoIfqc9FpIx-1" target="xrCKwuGJ82CZrmUyjIei-14">
          <mxGeometry relative="1" as="geometry" />
        </mxCell>
        <mxCell id="vh9fwOP3rLoIfqc9FpIx-1" value="User" style="shape=umlActor;verticalLabelPosition=bottom;verticalAlign=top;html=1;outlineConnect=0;" parent="1" vertex="1">
          <mxGeometry x="130" y="200" width="30" height="60" as="geometry" />
        </mxCell>
        <mxCell id="xrCKwuGJ82CZrmUyjIei-6" style="rounded=0;orthogonalLoop=1;jettySize=auto;html=1;dashed=1;" edge="1" parent="1" source="xrCKwuGJ82CZrmUyjIei-7">
          <mxGeometry relative="1" as="geometry">
            <mxPoint x="160" y="235" as="targetPoint" />
          </mxGeometry>
        </mxCell>
        <mxCell id="xrCKwuGJ82CZrmUyjIei-7" value="Forgot PWD" style="ellipse;whiteSpace=wrap;html=1;" vertex="1" parent="1">
          <mxGeometry x="290" y="230" width="120" height="80" as="geometry" />
        </mxCell>
        <mxCell id="xrCKwuGJ82CZrmUyjIei-8" value="&amp;lt;&amp;lt;includes&amp;gt;&amp;gt;" style="text;html=1;align=center;verticalAlign=middle;resizable=0;points=[];autosize=1;strokeColor=none;fillColor=none;" vertex="1" parent="1">
          <mxGeometry x="190" y="205" width="100" height="30" as="geometry" />
        </mxCell>
        <mxCell id="xrCKwuGJ82CZrmUyjIei-11" style="rounded=0;orthogonalLoop=1;jettySize=auto;html=1;dashed=1;entryX=1;entryY=0.3333333333333333;entryDx=0;entryDy=0;entryPerimeter=0;" edge="1" parent="1" source="xrCKwuGJ82CZrmUyjIei-12" target="vh9fwOP3rLoIfqc9FpIx-1">
          <mxGeometry relative="1" as="geometry">
            <mxPoint x="240" y="50" as="targetPoint" />
          </mxGeometry>
        </mxCell>
        <mxCell id="xrCKwuGJ82CZrmUyjIei-12" value="Add Favorite Payee" style="ellipse;whiteSpace=wrap;html=1;" vertex="1" parent="1">
          <mxGeometry x="290" y="115" width="120" height="80" as="geometry" />
        </mxCell>
        <mxCell id="xrCKwuGJ82CZrmUyjIei-13" value="&amp;lt;&amp;lt;includes&amp;gt;&amp;gt;" style="text;html=1;align=center;verticalAlign=middle;resizable=0;points=[];autosize=1;strokeColor=none;fillColor=none;" vertex="1" parent="1">
          <mxGeometry x="180" y="150" width="100" height="30" as="geometry" />
        </mxCell>
        <mxCell id="xrCKwuGJ82CZrmUyjIei-14" value="Help-center" style="rounded=0;whiteSpace=wrap;html=1;" vertex="1" parent="1">
          <mxGeometry x="290" y="430" width="120" height="60" as="geometry" />
        </mxCell>
        <mxCell id="xrCKwuGJ82CZrmUyjIei-15" value="Facial Verify" style="ellipse;whiteSpace=wrap;html=1;" vertex="1" parent="1">
          <mxGeometry x="540" y="420" width="120" height="80" as="geometry" />
        </mxCell>
        <mxCell id="xrCKwuGJ82CZrmUyjIei-17" style="edgeStyle=orthogonalEdgeStyle;rounded=0;orthogonalLoop=1;jettySize=auto;html=1;dashed=1;" edge="1" parent="1">
          <mxGeometry relative="1" as="geometry">
            <mxPoint x="544" y="460" as="sourcePoint" />
            <mxPoint x="414" y="460" as="targetPoint" />
          </mxGeometry>
        </mxCell>
        <mxCell id="xrCKwuGJ82CZrmUyjIei-18" value="&amp;lt;&amp;lt;includes&amp;gt;&amp;gt;" style="text;html=1;align=center;verticalAlign=middle;resizable=0;points=[];autosize=1;strokeColor=none;fillColor=none;" vertex="1" parent="1">
          <mxGeometry x="444" y="430" width="100" height="30" as="geometry" />
        </mxCell>
        <mxCell id="xrCKwuGJ82CZrmUyjIei-19" value="Facial Verify" style="ellipse;whiteSpace=wrap;html=1;" vertex="1" parent="1">
          <mxGeometry x="536" y="230" width="120" height="80" as="geometry" />
        </mxCell>
        <mxCell id="xrCKwuGJ82CZrmUyjIei-20" style="edgeStyle=orthogonalEdgeStyle;rounded=0;orthogonalLoop=1;jettySize=auto;html=1;dashed=1;" edge="1" parent="1">
          <mxGeometry relative="1" as="geometry">
            <mxPoint x="540" y="270" as="sourcePoint" />
            <mxPoint x="410" y="270" as="targetPoint" />
          </mxGeometry>
        </mxCell>
        <mxCell id="xrCKwuGJ82CZrmUyjIei-21" value="&amp;lt;&amp;lt;includes&amp;gt;&amp;gt;" style="text;html=1;align=center;verticalAlign=middle;resizable=0;points=[];autosize=1;strokeColor=none;fillColor=none;" vertex="1" parent="1">
          <mxGeometry x="440" y="240" width="100" height="30" as="geometry" />
        </mxCell>
        <mxCell id="xrCKwuGJ82CZrmUyjIei-26" style="edgeStyle=none;rounded=0;orthogonalLoop=1;jettySize=auto;html=1;dashed=1;" edge="1" parent="1" source="xrCKwuGJ82CZrmUyjIei-22" target="vh9fwOP3rLoIfqc9FpIx-1">
          <mxGeometry relative="1" as="geometry" />
        </mxCell>
        <mxCell id="xrCKwuGJ82CZrmUyjIei-22" value="Forgot PIN" style="ellipse;whiteSpace=wrap;html=1;" vertex="1" parent="1">
          <mxGeometry x="290" y="330" width="120" height="80" as="geometry" />
        </mxCell>
        <mxCell id="xrCKwuGJ82CZrmUyjIei-23" value="Facial Verify" style="ellipse;whiteSpace=wrap;html=1;" vertex="1" parent="1">
          <mxGeometry x="536" y="330" width="120" height="80" as="geometry" />
        </mxCell>
        <mxCell id="xrCKwuGJ82CZrmUyjIei-24" style="edgeStyle=orthogonalEdgeStyle;rounded=0;orthogonalLoop=1;jettySize=auto;html=1;dashed=1;" edge="1" parent="1">
          <mxGeometry relative="1" as="geometry">
            <mxPoint x="540" y="370" as="sourcePoint" />
            <mxPoint x="410" y="370" as="targetPoint" />
          </mxGeometry>
        </mxCell>
        <mxCell id="xrCKwuGJ82CZrmUyjIei-25" value="&amp;lt;&amp;lt;includes&amp;gt;&amp;gt;" style="text;html=1;align=center;verticalAlign=middle;resizable=0;points=[];autosize=1;strokeColor=none;fillColor=none;" vertex="1" parent="1">
          <mxGeometry x="440" y="340" width="100" height="30" as="geometry" />
        </mxCell>
        <mxCell id="xrCKwuGJ82CZrmUyjIei-27" value="&amp;lt;&amp;lt;includes&amp;gt;&amp;gt;" style="text;html=1;align=center;verticalAlign=middle;resizable=0;points=[];autosize=1;strokeColor=none;fillColor=none;" vertex="1" parent="1">
          <mxGeometry x="190" y="280" width="100" height="30" as="geometry" />
        </mxCell>
      </root>
    </mxGraphModel>
  </diagram>
</mxfile>
